<svg xmlns="http://www.w3.org/2000/svg" viewBox="254 77 604 649" fill="none">
<path fill="#1341b4" d="
  M 668.82 469.85
  Q 669.94 474.88 669.28 479.88
  A 1.09 1.08 -86.8 0 0 670.38 481.11
  C 681.79 480.81 693.46 480.49 704.85 481.39
  Q 712.05 481.96 717.24 481.22
  A 1.02 1.02 0.0 0 0 718.09 479.97
  C 716.48 473.08 715.67 466.93 717.89 460.47
  A 1.33 1.31 -3.3 0 1 718.59 459.69
  Q 720.02 459.04 721.32 460.53
  L 721.19 480.10
  A 0.49 0.49 0.0 0 0 721.68 480.59
  L 793.31 480.59
  A 0.75 0.74 -0.0 0 0 794.06 479.85
  L 794.06 377.32
  A 1.92 1.90 15.8 0 0 793.14 375.69
  C 789.25 373.30 786.51 369.80 786.32 364.88
  Q 785.99 356.13 792.94 352.35
  C 801.64 347.62 812.71 353.31 812.70 363.50
  C 812.70 369.56 809.89 373.01 805.21 375.98
  A 1.29 1.26 74.3 0 0 804.62 377.06
  Q 804.93 412.20 804.93 455.25
  Q 804.93 478.64 804.43 485.74
  Q 804.04 491.19 798.25 491.19
  Q 738.91 491.23 726.84 491.20
  C 717.78 491.18 710.90 490.82 703.38 491.14
  Q 697.57 491.39 692.11 491.32
  Q 669.87 491.05 612.75 491.16
  A 0.42 0.42 0.0 0 0 612.33 491.58
  L 612.33 561.06
  A 1.26 1.26 0.0 0 1 611.07 562.32
  L 460.49 562.32
  A 1.14 1.13 88.9 0 1 459.36 561.22
  C 459.31 559.47 459.80 556.61 459.80 554.56
  Q 459.86 424.22 459.78 409.75
  A 0.31 0.31 0.0 0 1 460.10 409.44
  Q 485.01 409.87 521.88 409.35
  C 523.98 409.33 527.68 409.56 530.26 410.16
  A 0.41 0.41 0.0 0 0 530.76 409.76
  Q 530.63 385.97 530.69 338.50
  Q 530.70 334.28 534.08 331.07
  Q 540.88 324.64 545.51 320.63
  A 1.72 1.72 0.0 0 0 546.10 319.27
  C 546.00 316.64 545.84 313.61 546.57 311.25
  C 549.62 301.37 561.97 299.11 569.00 306.32
  C 573.68 311.12 573.66 319.10 569.30 324.26
  C 565.40 328.88 559.36 329.65 553.67 327.77
  A 1.53 1.52 -58.4 0 0 552.10 328.15
  L 541.71 338.94
  A 1.24 1.23 -23.0 0 0 541.36 339.80
  L 541.36 409.34
  A 0.24 0.23 90.0 0 0 541.59 409.58
  L 560.51 409.58
  A 0.71 0.70 -89.6 0 0 561.21 408.88
  Q 561.53 388.36 561.10 357.77
  Q 561.03 352.72 564.80 349.82
  Q 579.43 338.55 595.37 325.86
  A 0.68 0.68 0.0 0 0 595.24 324.71
  Q 589.97 322.23 588.87 321.63
  C 585.60 319.85 585.10 317.54 585.09 313.66
  Q 585.02 281.46 585.13 241.00
  A 1.77 1.76 14.1 0 0 584.19 239.44
  Q 569.43 231.72 555.35 224.16
  C 550.20 221.41 545.93 218.29 551.73 212.72
  Q 555.50 209.10 572.22 191.81
  C 576.03 187.87 579.33 185.17 582.32 181.50
  A 0.65 0.64 -46.8 0 0 582.30 180.65
  Q 565.62 162.03 552.95 148.58
  C 548.12 143.45 547.68 139.43 554.67 135.88
  Q 573.37 126.39 589.30 117.89
  Q 609.53 107.11 611.90 105.84
  Q 637.54 92.10 663.73 78.50
  C 667.52 76.52 669.41 77.51 672.03 80.56
  Q 675.15 84.19 681.58 90.98
  C 688.68 98.47 695.26 106.58 703.07 114.44
  A 0.37 0.37 0.0 0 0 703.60 114.43
  Q 732.06 83.32 735.08 80.08
  C 736.83 78.21 739.19 76.55 741.83 77.91
  Q 775.24 95.27 806.31 111.93
  Q 838.19 129.02 853.14 136.85
  C 859.06 139.95 857.96 144.43 853.98 148.48
  Q 847.98 154.58 842.63 160.65
  C 836.35 167.76 830.46 173.38 824.37 180.37
  A 0.78 0.77 -46.4 0 0 824.39 181.42
  Q 840.87 198.52 855.63 213.53
  C 857.89 215.82 858.57 219.19 855.70 221.48
  Q 854.43 222.49 851.87 223.86
  Q 840.07 230.20 823.33 238.82
  A 2.91 2.91 0.0 0 0 821.75 241.41
  Q 821.74 310.95 821.65 315.18
  Q 821.55 319.79 817.67 321.91
  C 808.55 326.89 798.41 331.84 790.56 336.20
  Q 769.71 347.79 743.65 361.33
  C 739.09 363.70 733.36 367.29 729.29 369.29
  Q 723.20 372.29 705.45 381.69
  Q 703.64 382.65 701.53 381.71
  Q 697.79 380.06 680.31 370.48
  Q 667.29 363.36 659.13 359.17
  C 647.18 353.02 632.99 344.91 619.42 338.18
  Q 613.65 335.32 607.11 331.15
  A 1.27 1.26 -47.5 0 0 605.65 331.22
  L 572.88 356.81
  A 2.43 2.43 0.0 0 0 571.95 358.72
  L 571.95 408.84
  A 0.70 0.70 0.0 0 0 572.65 409.54
  L 591.35 409.54
  A 1.13 1.13 0.0 0 0 592.48 408.37
  Q 592.03 395.93 592.19 383.22
  Q 592.25 379.01 593.26 377.63
  C 595.75 374.22 601.04 375.28 602.40 379.06
  Q 602.65 379.75 602.76 384.90
  Q 602.97 394.58 602.77 408.51
  A 1.14 1.13 86.7 0 0 604.04 409.65
  L 611.09 408.79
  A 1.09 1.09 0.0 0 1 612.30 409.87
  L 612.30 447.74
  A 1.29 1.29 0.0 0 0 613.59 449.03
  L 675.75 449.03
  A 4.18 4.15 -69.6 0 0 678.91 447.57
  C 683.34 442.42 692.18 433.60 700.27 425.01
  Q 701.50 423.71 705.26 423.64
  Q 721.96 423.34 741.59 423.28
  A 1.08 1.08 0.0 0 0 742.67 422.25
  C 743.39 409.34 742.72 396.05 742.81 383.01
  C 742.83 378.77 743.93 375.21 748.53 375.53
  Q 753.62 375.88 753.58 381.54
  Q 753.44 401.48 753.37 429.33
  C 753.36 433.00 750.59 434.16 746.95 434.16
  Q 717.24 434.14 709.74 433.74
  Q 706.40 433.56 704.35 435.80
  Q 693.27 447.93 684.40 456.88
  Q 682.90 458.40 680.20 459.33
  A 2.80 2.75 34.8 0 1 679.27 459.49
  L 613.33 459.49
  A 1.06 1.05 -0.0 0 0 612.27 460.54
  L 612.27 479.61
  A 0.97 0.96 0.0 0 0 613.24 480.57
  L 663.31 480.57
  A 1.14 1.14 0.0 0 0 664.44 479.30
  L 663.35 470.35
  A 0.46 0.45 86.6 0 1 663.80 469.84
  L 668.82 469.85
  Z
  M 666.27 89.53
  A 0.79 0.79 0.0 0 0 665.32 89.36
  L 563.66 143.20
  A 0.79 0.79 0.0 0 0 563.44 144.43
  L 590.43 174.23
  A 0.79 0.79 0.0 0 0 591.38 174.40
  L 693.89 121.49
  A 0.79 0.79 0.0 0 0 694.11 120.26
  L 666.27 89.53
  Z
  M 712.45 120.36
  A 0.74 0.74 0.0 0 0 712.66 121.51
  L 815.12 174.54
  A 0.74 0.74 0.0 0 0 816.00 174.38
  L 843.34 144.40
  A 0.74 0.74 0.0 0 0 843.14 143.24
  L 741.51 89.32
  A 0.74 0.74 0.0 0 0 740.61 89.47
  L 712.45 120.36
  Z
  M 697.23 231.07
  A 0.49 0.49 0.0 0 0 697.95 230.64
  L 698.12 131.92
  A 0.49 0.49 0.0 0 0 697.41 131.48
  L 601.93 180.67
  A 0.49 0.49 0.0 0 0 601.93 181.54
  L 697.23 231.07
  Z
  M 709.19 131.46
  A 0.31 0.31 0.0 0 0 708.73 131.74
  L 708.91 230.63
  A 0.31 0.31 0.0 0 0 709.36 230.91
  L 804.92 181.29
  A 0.31 0.31 0.0 0 0 804.92 180.74
  L 709.19 131.46
  Z
  M 693.34 241.79
  A 0.83 0.83 0.0 0 0 693.11 240.49
  L 591.22 187.77
  A 0.83 0.83 0.0 0 0 590.24 187.94
  L 563.72 215.43
  A 0.83 0.83 0.0 0 0 563.92 216.74
  L 665.30 271.61
  A 0.83 0.83 0.0 0 0 666.31 271.44
  L 693.34 241.79
  Z
  M 741.03 271.32
  A 0.61 0.61 0.0 0 0 741.76 271.44
  L 842.75 216.66
  A 0.61 0.61 0.0 0 0 842.90 215.70
  L 816.46 187.81
  A 0.61 0.61 0.0 0 0 815.73 187.69
  L 713.05 240.69
  A 0.61 0.61 0.0 0 0 712.89 241.65
  L 741.03 271.32
  Z
  M 595.75 246.15
  L 595.75 311.83
  A 2.80 2.80 0.0 0 0 597.23 314.30
  L 604.48 318.14
  A 1.64 1.63 -49.7 0 0 606.25 317.99
  L 622.28 305.46
  A 1.39 1.37 -18.5 0 0 622.81 304.42
  Q 622.82 303.94 622.74 303.35
  C 621.61 295.14 627.67 288.74 635.81 288.71
  C 648.45 288.66 653.15 304.16 643.99 312.18
  C 639.99 315.68 634.48 315.50 629.84 313.45
  A 1.51 1.51 0.0 0 0 628.31 313.64
  L 615.70 323.49
  A 0.56 0.56 0.0 0 0 615.78 324.42
  L 697.26 367.65
  A 0.55 0.55 0.0 0 0 698.07 367.16
  L 698.07 253.67
  A 0.54 0.54 0.0 0 0 697.13 253.30
  Q 674.87 277.08 672.81 279.32
  Q 670.53 281.79 668.49 282.83
  A 3.70 3.70 0.0 0 1 665.09 282.79
  L 595.88 246.07
  A 0.09 0.09 0.0 0 0 595.75 246.15
  Z
  M 708.84 253.45
  L 708.84 366.97
  A 0.75 0.74 76.1 0 0 709.93 367.63
  L 810.82 313.62
  A 0.77 0.76 -14.6 0 0 811.22 312.95
  L 811.22 246.91
  A 0.69 0.69 0.0 0 0 810.15 246.33
  Q 806.69 248.58 802.71 250.46
  Q 795.48 253.87 789.67 257.41
  C 782.25 261.93 767.39 269.18 757.65 274.71
  Q 749.36 279.42 742.61 282.60
  C 739.13 284.24 736.84 282.25 734.46 279.81
  Q 722.09 267.08 709.57 253.17
  A 0.42 0.42 0.0 0 0 708.84 253.45
  Z
  M 465.32 556.90
  A 0.56 0.55 -16.7 0 0 465.64 557.07
  Q 470.58 557.82 475.49 556.69
  A 5.12 4.81 37.8 0 1 476.86 556.56
  Q 486.36 556.95 502.50 556.80
  C 503.83 556.78 505.54 557.10 506.85 557.08
  Q 526.78 556.82 530.25 556.63
  Q 535.57 556.33 545.74 556.71
  Q 554.94 557.06 561.25 556.75
  Q 561.72 556.73 572.00 556.79
  Q 579.75 556.83 589.58 556.96
  Q 593.16 557.00 597.42 557.48
  Q 600.04 557.78 605.25 557.27
  C 608.44 556.97 607.53 553.07 607.12 550.50
  Q 606.91 549.25 606.84 545.99
  Q 606.44 528.67 606.56 520.48
  Q 606.66 513.58 606.29 507.52
  Q 605.92 501.65 606.81 493.51
  Q 607.64 485.90 606.39 473.88
  Q 605.93 469.51 606.42 461.05
  C 607.01 450.69 606.25 438.27 606.46 429.43
  Q 606.69 419.95 606.68 414.98
  A 0.82 0.82 0.0 0 0 605.86 414.16
  Q 599.52 414.15 592.93 414.57
  C 581.74 415.28 571.51 414.22 560.31 414.30
  Q 547.69 414.40 536.55 413.73
  Q 535.00 413.64 527.45 414.20
  C 520.19 414.74 513.41 414.19 507.46 413.97
  C 499.90 413.70 487.33 414.92 479.74 414.75
  Q 472.43 414.60 465.35 414.36
  A 0.88 0.88 0.0 0 0 464.44 415.23
  Q 464.38 418.54 465.03 421.95
  A 3.35 2.49 -58.5 0 1 465.08 422.51
  Q 465.14 463.47 465.67 535.84
  C 465.72 542.24 465.37 548.89 464.71 555.49
  Q 464.64 556.20 465.32 556.90
  Z"
/>
<path fill="#ffffff" d="
  M 666.27 89.53
  L 694.11 120.26
  A 0.79 0.79 0.0 0 1 693.89 121.49
  L 591.38 174.40
  A 0.79 0.79 0.0 0 1 590.43 174.23
  L 563.44 144.43
  A 0.79 0.79 0.0 0 1 563.66 143.20
  L 665.32 89.36
  A 0.79 0.79 0.0 0 1 666.27 89.53
  Z"
/>
<path fill="#ffffff" d="
  M 712.45 120.36
  L 740.61 89.47
  A 0.74 0.74 0.0 0 1 741.51 89.32
  L 843.14 143.24
  A 0.74 0.74 0.0 0 1 843.34 144.40
  L 816.00 174.38
  A 0.74 0.74 0.0 0 1 815.12 174.54
  L 712.66 121.51
  A 0.74 0.74 0.0 0 1 712.45 120.36
  Z"
/>
<path fill="#1341b4" d="
  M 333.77 115.15
  Q 335.29 115.15 336.12 115.63
  Q 371.24 136.04 405.75 155.28
  Q 410.90 158.15 411.14 158.41
  C 413.16 160.60 412.87 162.99 412.89 166.33
  Q 413.13 204.25 412.82 247.77
  Q 412.80 251.71 410.29 253.54
  Q 407.29 255.72 398.69 260.33
  Q 394.05 262.81 386.97 266.91
  Q 351.51 287.45 336.09 296.30
  Q 335.21 296.81 333.80 296.81
  Q 332.40 296.81 331.52 296.30
  Q 316.09 287.46 280.63 266.93
  Q 273.54 262.83 268.90 260.36
  Q 260.30 255.75 257.30 253.57
  Q 254.79 251.74 254.77 247.80
  Q 254.44 204.28 254.67 166.36
  C 254.68 163.02 254.39 160.63 256.41 158.44
  Q 256.65 158.18 261.80 155.31
  Q 296.30 136.06 331.41 115.63
  Q 332.24 115.15 333.77 115.15
  Z
  M 333.86 161.03
  Q 334.88 161.03 335.56 161.40
  Q 350.92 169.88 366.10 179.13
  A 1.94 1.94 0.0 0 0 368.07 179.15
  L 396.03 163.01
  A 0.53 0.53 0.0 0 0 396.05 162.10
  C 385.95 155.68 374.33 149.95 364.09 143.87
  Q 354.95 138.46 348.90 135.29
  C 343.45 132.45 339.96 130.04 334.50 126.74
  Q 334.30 126.62 333.84 126.62
  Q 333.38 126.62 333.18 126.75
  C 327.72 130.05 324.24 132.46 318.79 135.31
  Q 312.74 138.48 303.61 143.90
  C 293.37 149.99 281.76 155.73 271.67 162.16
  A 0.53 0.53 0.0 0 0 271.69 163.07
  L 299.66 179.18
  A 1.94 1.94 0.0 0 0 301.63 179.16
  Q 316.80 169.90 332.15 161.41
  Q 332.83 161.03 333.86 161.03
  Z
  M 372.22 188.74
  A 0.36 0.36 0.0 0 0 372.04 189.05
  L 372.04 221.71
  A 0.36 0.36 0.0 0 0 372.21 222.02
  L 401.69 240.02
  A 0.36 0.36 0.0 0 0 402.24 239.71
  L 402.24 172.03
  A 0.36 0.36 0.0 0 0 401.70 171.72
  L 372.22 188.74
  Z
  M 265.30 172.11
  L 265.30 239.43
  A 0.45 0.45 0.0 0 0 265.97 239.82
  Q 273.95 235.18 294.26 223.02
  C 300.96 219.01 305.72 227.38 300.52 231.30
  C 295.48 235.09 287.32 239.12 281.83 242.58
  Q 274.38 247.27 272.03 248.64
  A 0.73 0.73 0.0 0 0 272.03 249.90
  L 327.28 281.79
  A 0.63 0.62 -74.8 0 0 328.22 281.25
  L 328.22 208.79
  A 1.66 1.65 15.2 0 0 327.39 207.36
  L 265.82 171.81
  A 0.35 0.35 0.0 0 0 265.30 172.11
  Z
  M 355.98 186.07
  A 0.53 0.53 0.0 0 0 355.99 185.15
  L 334.06 172.48
  A 0.53 0.53 0.0 0 0 333.52 172.48
  L 311.48 185.21
  A 0.53 0.53 0.0 0 0 311.49 186.13
  L 333.42 198.79
  A 0.53 0.53 0.0 0 0 333.94 198.79
  L 355.98 186.07
  Z
  M 339.32 234.43
  A 0.31 0.31 0.0 0 0 339.78 234.70
  L 361.35 222.25
  A 0.31 0.31 0.0 0 0 361.51 221.98
  L 361.51 195.52
  A 0.31 0.31 0.0 0 0 361.04 195.25
  L 339.47 207.71
  A 0.31 0.31 0.0 0 0 339.32 207.98
  L 339.32 234.43
  Z
  M 367.05 231.16
  A 0.60 0.60 0.0 0 0 366.44 231.15
  L 339.45 246.74
  A 0.60 0.60 0.0 0 0 339.15 247.26
  L 339.15 281.46
  A 0.60 0.60 0.0 0 0 340.05 281.98
  L 395.84 249.78
  A 0.60 0.60 0.0 0 0 395.86 248.74
  L 367.05 231.16
  Z"
/>
<path fill="#ffffff" d="
  M 333.84 126.62
  Q 334.30 126.62 334.50 126.74
  C 339.96 130.04 343.45 132.45 348.90 135.29
  Q 354.95 138.46 364.09 143.87
  C 374.33 149.95 385.95 155.68 396.05 162.10
  A 0.53 0.53 0.0 0 1 396.03 163.01
  L 368.07 179.15
  A 1.94 1.94 0.0 0 1 366.10 179.13
  Q 350.92 169.88 335.56 161.40
  Q 334.88 161.03 333.86 161.03
  Q 332.83 161.03 332.15 161.41
  Q 316.80 169.90 301.63 179.16
  A 1.94 1.94 0.0 0 1 299.66 179.18
  L 271.69 163.07
  A 0.53 0.53 0.0 0 1 271.67 162.16
  C 281.76 155.73 293.37 149.99 303.61 143.90
  Q 312.74 138.48 318.79 135.31
  C 324.24 132.46 327.72 130.05 333.18 126.75
  Q 333.38 126.62 333.84 126.62
  Z"
/>
<path fill="#ffffff" d="
  M 697.23 231.07
  L 601.93 181.54
  A 0.49 0.49 0.0 0 1 601.93 180.67
  L 697.41 131.48
  A 0.49 0.49 0.0 0 1 698.12 131.92
  L 697.95 230.64
  A 0.49 0.49 0.0 0 1 697.23 231.07
  Z"
/>
<path fill="#ffffff" d="
  M 709.19 131.46
  L 804.92 180.74
  A 0.31 0.31 0.0 0 1 804.92 181.29
  L 709.36 230.91
  A 0.31 0.31 0.0 0 1 708.91 230.63
  L 708.73 131.74
  A 0.31 0.31 0.0 0 1 709.19 131.46
  Z"
/>
<circle fill="#1341b4" cx="449.69" cy="155.90" r="8.77"/>
<circle fill="#1341b4" cx="478.73" cy="155.82" r="8.81"/>
<path fill="#ffffff" d="
  M 372.22 188.74
  L 401.70 171.72
  A 0.36 0.36 0.0 0 1 402.24 172.03
  L 402.24 239.71
  A 0.36 0.36 0.0 0 1 401.69 240.02
  L 372.21 222.02
  A 0.36 0.36 0.0 0 1 372.04 221.71
  L 372.04 189.05
  A 0.36 0.36 0.0 0 1 372.22 188.74
  Z"
/>
<path fill="#ffffff" d="
  M 265.30 172.11
  A 0.35 0.35 0.0 0 1 265.82 171.81
  L 327.39 207.36
  A 1.66 1.65 15.2 0 1 328.22 208.79
  L 328.22 281.25
  A 0.63 0.62 -74.8 0 1 327.28 281.79
  L 272.03 249.90
  A 0.73 0.73 0.0 0 1 272.03 248.64
  Q 274.38 247.27 281.83 242.58
  C 287.32 239.12 295.48 235.09 300.52 231.30
  C 305.72 227.38 300.96 219.01 294.26 223.02
  Q 273.95 235.18 265.97 239.82
  A 0.45 0.45 0.0 0 1 265.30 239.43
  L 265.30 172.11
  Z"
/>
<path fill="#ffffff" d="
  M 355.98 186.07
  L 333.94 198.79
  A 0.53 0.53 0.0 0 1 333.42 198.79
  L 311.49 186.13
  A 0.53 0.53 0.0 0 1 311.48 185.21
  L 333.52 172.48
  A 0.53 0.53 0.0 0 1 334.06 172.48
  L 355.99 185.15
  A 0.53 0.53 0.0 0 1 355.98 186.07
  Z"
/>
<path fill="#1341b4" d="
  M 548.49 186.66
  C 548.48 191.19 546.61 195.12 542.82 197.53
  C 535.43 202.24 527.25 199.63 523.21 192.12
  A 0.71 0.69 75.4 0 0 522.60 191.75
  Q 514.59 191.73 432.15 191.69
  C 429.32 191.69 426.96 189.22 426.96 186.48
  C 426.97 183.74 429.34 181.28 432.17 181.28
  Q 514.61 181.50 522.62 181.50
  A 0.71 0.69 -75.2 0 0 523.23 181.13
  C 527.29 173.63 535.48 171.05 542.86 175.78
  C 546.63 178.21 548.50 182.14 548.49 186.66
  Z"
/>
<path fill="#ffffff" d="
  M 693.34 241.79
  L 666.31 271.44
  A 0.83 0.83 0.0 0 1 665.30 271.61
  L 563.92 216.74
  A 0.83 0.83 0.0 0 1 563.72 215.43
  L 590.24 187.94
  A 0.83 0.83 0.0 0 1 591.22 187.77
  L 693.11 240.49
  A 0.83 0.83 0.0 0 1 693.34 241.79
  Z"
/>
<path fill="#ffffff" d="
  M 741.03 271.32
  L 712.89 241.65
  A 0.61 0.61 0.0 0 1 713.05 240.69
  L 815.73 187.69
  A 0.61 0.61 0.0 0 1 816.46 187.81
  L 842.90 215.70
  A 0.61 0.61 0.0 0 1 842.75 216.66
  L 741.76 271.44
  A 0.61 0.61 0.0 0 1 741.03 271.32
  Z"
/>
<path fill="#ffffff" d="
  M 339.32 234.43
  L 339.32 207.98
  A 0.31 0.31 0.0 0 1 339.47 207.71
  L 361.04 195.25
  A 0.31 0.31 0.0 0 1 361.51 195.52
  L 361.51 221.98
  A 0.31 0.31 0.0 0 1 361.35 222.25
  L 339.78 234.70
  A 0.31 0.31 0.0 0 1 339.32 234.43
  Z"
/>
<path fill="#1341b4" d="
  M 519.96 217.56
  C 519.93 223.30 515.91 228.74 510.27 230.24
  C 504.15 231.86 497.48 229.13 494.99 223.24
  A 0.92 0.91 78.2 0 0 494.13 222.67
  Q 490.93 222.69 432.26 222.43
  C 429.37 222.41 427.01 220.13 427.02 217.19
  C 427.03 214.24 429.42 211.98 432.30 211.99
  Q 490.97 212.20 494.17 212.24
  A 0.92 0.91 -77.7 0 0 495.04 211.68
  C 497.57 205.81 504.27 203.13 510.37 204.80
  C 516.00 206.35 519.98 211.82 519.96 217.56
  Z"
/>
<path fill="#ffffff" d="
  M 367.05 231.16
  L 395.86 248.74
  A 0.60 0.60 0.0 0 1 395.84 249.78
  L 340.05 281.98
  A 0.60 0.60 0.0 0 1 339.15 281.46
  L 339.15 247.26
  A 0.60 0.60 0.0 0 1 339.45 246.74
  L 366.44 231.15
  A 0.60 0.60 0.0 0 1 367.05 231.16
  Z"
/>
<path fill="#ffffff" d="
  M 595.75 246.15
  A 0.09 0.09 0.0 0 1 595.88 246.07
  L 665.09 282.79
  A 3.70 3.70 0.0 0 0 668.49 282.83
  Q 670.53 281.79 672.81 279.32
  Q 674.87 277.08 697.13 253.30
  A 0.54 0.54 0.0 0 1 698.07 253.67
  L 698.07 367.16
  A 0.55 0.55 0.0 0 1 697.26 367.65
  L 615.78 324.42
  A 0.56 0.56 0.0 0 1 615.70 323.49
  L 628.31 313.64
  A 1.51 1.51 0.0 0 1 629.84 313.45
  C 634.48 315.50 639.99 315.68 643.99 312.18
  C 653.15 304.16 648.45 288.66 635.81 288.71
  C 627.67 288.74 621.61 295.14 622.74 303.35
  Q 622.82 303.94 622.81 304.42
  A 1.39 1.37 -18.5 0 1 622.28 305.46
  L 606.25 317.99
  A 1.64 1.63 -49.7 0 1 604.48 318.14
  L 597.23 314.30
  A 2.80 2.80 0.0 0 1 595.75 311.83
  L 595.75 246.15
  Z"
/>
<path fill="#3860e0" d="
  M 519.72 352.13
  Q 514.27 352.90 512.70 352.87
  Q 494.46 352.56 488.40 352.31
  Q 472.15 351.65 464.10 351.94
  C 447.50 352.55 428.49 350.64 410.84 354.18
  A 3.32 3.28 8.2 0 0 408.60 355.83
  Q 407.47 357.91 406.04 358.98
  A 2.79 2.78 73.5 0 0 404.93 361.04
  Q 402.95 395.55 403.36 429.13
  C 403.42 434.05 404.27 440.12 404.21 445.24
  C 404.07 458.07 403.57 468.54 404.68 481.13
  Q 405.46 490.06 404.68 499.05
  C 403.20 516.17 403.49 537.71 403.50 551.89
  C 403.50 559.82 402.25 571.03 402.72 578.51
  Q 403.63 592.73 403.76 603.81
  C 403.79 607.13 404.74 611.02 408.24 612.21
  Q 408.67 613.30 410.24 613.61
  C 411.79 614.85 414.08 615.88 416.11 615.88
  C 412.59 616.03 409.23 615.18 406.25 613.36
  A 0.05 0.05 0.0 0 0 406.18 613.44
  Q 411.36 618.65 418.97 618.97
  C 436.70 619.69 453.47 619.43 471.05 619.44
  Q 572.36 619.50 640.44 619.09
  Q 651.08 619.02 658.10 617.83
  Q 663.01 616.99 665.60 612.52
  A 2.64 2.44 -26.7 0 0 665.90 611.72
  Q 668.88 595.60 668.41 580.55
  Q 668.12 571.17 668.44 566.91
  Q 668.82 561.82 668.88 553.25
  Q 669.03 534.96 668.89 526.46
  C 668.80 520.02 669.54 511.83 669.00 504.55
  Q 668.95 503.89 669.67 502.82
  A 0.66 0.66 0.0 0 0 669.56 501.94
  L 669.20 501.62
  L 720.74 501.65
  A 0.66 0.65 0.0 0 1 721.40 502.30
  L 721.40 512.52
  A 1.12 1.11 90.0 0 0 722.51 513.64
  L 774.15 513.64
  A 1.00 1.00 0.0 0 1 775.15 514.64
  L 775.15 566.17
  A 0.35 0.35 0.0 0 1 774.80 566.52
  L 723.08 566.52
  A 1.79 1.78 90.0 0 0 721.30 568.31
  Q 721.36 587.10 721.21 610.75
  Q 721.18 616.22 720.38 621.09
  Q 716.09 627.91 713.12 635.22
  Q 710.30 642.15 708.88 644.16
  C 704.85 649.87 700.33 654.82 693.83 658.28
  Q 687.43 661.69 683.61 663.45
  C 679.49 665.33 673.68 666.29 670.03 667.65
  Q 666.96 668.79 668.48 670.14
  L 618.35 670.96
  A 1.38 1.37 -81.9 0 0 617.05 671.95
  Q 616.62 673.43 616.61 675.50
  Q 616.59 702.21 616.43 724.61
  A 0.55 0.55 0.0 0 1 615.88 725.15
  L 572.31 725.15
  Q 569.49 721.55 568.97 717.05
  Q 566.89 699.11 567.71 681.06
  Q 567.99 675.01 565.99 671.74
  A 0.23 0.23 0.0 0 0 565.56 671.84
  Q 565.56 671.85 565.79 672.28
  A 0.63 0.63 0.0 0 1 565.61 673.07
  Q 564.31 674.06 564.37 676.52
  C 564.58 687.01 564.72 696.97 564.07 706.92
  Q 563.84 710.33 563.89 713.79
  L 563.50 673.26
  A 1.96 1.95 -89.5 0 0 561.60 671.32
  Q 535.15 670.57 508.24 671.24
  Q 505.69 672.88 505.00 674.22
  Q 503.87 676.40 503.81 680.42
  Q 503.52 699.21 503.44 718.01
  Q 503.43 719.82 502.55 725.13
  L 456.12 724.86
  A 0.85 0.85 0.0 0 1 455.28 724.01
  L 455.28 673.07
  A 2.00 1.99 0.1 0 0 453.29 671.08
  Q 426.47 671.01 412.75 670.93
  Q 400.39 670.86 387.94 666.56
  Q 378.04 663.14 370.32 655.93
  Q 368.30 654.05 363.41 648.48
  Q 359.73 644.29 357.85 640.06
  Q 354.33 632.15 352.39 623.93
  Q 351.06 618.32 350.85 607.03
  Q 350.54 590.93 350.78 578.00
  Q 350.88 572.73 350.67 568.86
  A 1.96 1.96 0.0 0 0 349.04 567.04
  C 346.65 566.65 343.20 566.31 340.64 566.36
  Q 316.94 566.83 298.06 566.50
  A 1.45 1.44 -89.6 0 1 296.64 565.05
  L 296.64 514.35
  A 0.68 0.68 0.0 0 1 297.32 513.67
  L 348.99 513.67
  A 1.61 1.61 0.0 0 0 350.60 512.05
  L 350.49 458.94
  Q 351.06 457.68 349.88 456.52
  Q 348.57 455.23 345.70 454.88
  Q 340.83 454.28 335.93 454.03
  Q 316.47 453.02 301.05 452.20
  Q 299.54 452.12 296.75 450.77
  L 296.51 405.96
  A 0.56 0.56 0.0 0 1 297.07 405.40
  L 349.19 405.14
  A 0.67 0.63 -62.6 0 0 349.59 405.00
  Q 350.67 404.22 350.67 402.12
  Q 351.85 403.83 353.59 403.60
  A 0.80 0.80 0.0 0 0 354.26 402.59
  L 350.99 390.71
  A 0.73 0.69 47.5 0 1 351.00 390.26
  Q 352.01 387.10 354.70 385.36
  A 1.40 1.39 74.8 0 0 355.33 384.25
  Q 355.79 373.26 355.19 362.38
  C 355.03 359.56 355.00 354.15 355.80 351.89
  Q 358.01 345.62 358.43 343.74
  C 359.75 337.94 361.70 334.45 364.42 327.71
  Q 366.00 323.80 370.23 319.41
  C 373.45 316.07 376.73 314.68 381.25 311.97
  C 383.96 310.34 386.60 307.76 389.84 306.80
  C 396.68 304.78 403.17 303.12 410.65 303.02
  Q 424.60 302.82 427.11 302.85
  Q 436.18 302.93 445.19 302.86
  Q 447.75 302.84 450.43 301.87
  A 0.39 0.39 0.0 0 0 450.31 301.12
  L 438.95 300.90
  L 454.03 300.81
  A 1.29 1.28 89.8 0 0 455.30 299.52
  L 455.30 246.83
  A 0.55 0.55 0.0 0 1 455.98 246.29
  C 458.76 246.95 461.55 246.45 464.16 246.50
  Q 478.74 246.73 503.43 246.50
  C 505.01 246.49 506.64 246.07 507.44 246.28
  A 0.92 0.91 7.1 0 1 508.12 247.15
  Q 508.26 268.21 508.09 298.28
  Q 508.08 300.18 509.35 300.71
  Q 509.53 300.79 512.24 300.90
  Q 525.16 301.43 537.24 300.58
  A 2.44 2.35 27.0 0 0 538.26 300.27
  Q 539.41 299.61 539.70 299.62
  A 0.43 0.43 0.0 0 1 540.04 300.29
  Q 536.60 305.56 535.03 313.53
  Q 534.57 315.88 532.80 317.59
  C 527.40 322.83 520.27 327.76 520.09 337.74
  Q 519.95 345.05 519.72 352.13
  Z"
/>
<path fill="#ffffff" d="
  M 708.84 253.45
  A 0.42 0.42 0.0 0 1 709.57 253.17
  Q 722.09 267.08 734.46 279.81
  C 736.84 282.25 739.13 284.24 742.61 282.60
  Q 749.36 279.42 757.65 274.71
  C 767.39 269.18 782.25 261.93 789.67 257.41
  Q 795.48 253.87 802.71 250.46
  Q 806.69 248.58 810.15 246.33
  A 0.69 0.69 0.0 0 1 811.22 246.91
  L 811.22 312.95
  A 0.77 0.76 -14.6 0 1 810.82 313.62
  L 709.93 367.63
  A 0.75 0.74 76.1 0 1 708.84 366.97
  L 708.84 253.45
  Z"
/>
<path fill="#1341b4" d="
  M 564.16 246.82
  L 571.53 246.82
  A 0.33 0.33 0.0 0 1 571.86 247.15
  L 571.86 293.83
  A 0.33 0.33 0.0 0 1 571.41 294.13
  L 564.04 291.24
  A 0.33 0.33 0.0 0 1 563.83 290.93
  L 563.83 247.15
  A 0.33 0.33 0.0 0 1 564.16 246.82
  Z"
/>
<path fill="#9aaef1" d="
  M 30.15 524.72
  L 30.16 404.29
  Q 30.59 329.94 30.67 255.59
  C 30.68 253.00 31.01 251.05 31.48 248.85
  A 0.02 0.01 70.1 0 1 31.50 248.87
  Q 31.50 249.04 31.50 249.17
  A 0.12 0.11 78.6 0 0 31.66 249.28
  Q 31.88 249.18 32.17 249.15
  A 0.63 0.63 0.0 0 1 32.85 249.72
  Q 33.02 251.41 33.00 263.59
  Q 32.86 336.31 32.76 372.05
  C 32.75 374.94 33.14 380.03 32.98 383.65
  C 32.51 394.14 32.88 404.49 32.88 413.50
  C 32.86 476.37 32.44 539.07 33.10 601.64
  C 33.28 618.23 32.81 632.49 33.00 650.79
  Q 33.31 680.75 32.88 717.13
  Q 32.87 718.09 32.37 734.95
  A 0.57 0.57 0.0 0 1 31.80 735.50
  L 31.47 735.50
  A 0.36 0.35 85.2 0 1 31.12 735.20
  Q 30.56 731.73 30.51 729.33
  Q 30.47 727.39 30.06 688.94
  Q 29.91 674.62 30.19 648.56
  Q 30.48 622.40 30.13 603.99
  C 30.00 597.06 30.77 588.75 30.30 581.06
  Q 29.90 574.56 30.29 564.96
  C 30.82 551.85 30.20 538.15 30.15 524.72
  Z"
/>
<path fill="#1341b4" d="
  M 438.95 300.90
  L 450.31 301.12
  A 0.39 0.39 0.0 0 1 450.43 301.87
  Q 447.75 302.84 445.19 302.86
  Q 436.18 302.93 427.11 302.85
  Q 424.60 302.82 410.65 303.02
  C 403.17 303.12 396.68 304.78 389.84 306.80
  C 386.60 307.76 383.96 310.34 381.25 311.97
  C 376.73 314.68 373.45 316.07 370.23 319.41
  Q 366.00 323.80 364.42 327.71
  C 361.70 334.45 359.75 337.94 358.43 343.74
  Q 358.01 345.62 355.80 351.89
  C 355.00 354.15 355.03 359.56 355.19 362.38
  Q 355.79 373.26 355.33 384.25
  A 1.40 1.39 74.8 0 1 354.70 385.36
  Q 352.01 387.10 351.00 390.26
  A 0.73 0.69 47.5 0 0 350.99 390.71
  L 354.26 402.59
  A 0.80 0.80 0.0 0 1 353.59 403.60
  Q 351.85 403.83 350.67 402.12
  L 350.89 397.34
  A 2.72 2.70 -74.9 0 0 349.43 394.79
  Q 340.94 390.40 333.13 384.63
  C 328.44 381.16 328.18 378.75 328.22 373.27
  Q 328.46 341.85 328.31 312.59
  C 328.28 307.38 335.11 306.13 337.99 309.49
  Q 339.31 311.04 339.28 314.26
  Q 339.23 318.70 338.87 366.26
  Q 338.83 371.34 339.25 375.03
  A 2.61 2.57 -76.3 0 0 340.34 376.85
  L 350.44 383.82
  A 0.61 0.61 0.0 0 0 351.39 383.27
  C 351.30 381.83 350.83 379.77 350.89 377.54
  C 351.32 360.11 349.82 341.45 360.73 326.27
  Q 368.22 315.84 378.54 308.44
  A 17.76 17.34 16.2 0 1 382.60 306.27
  Q 391.95 302.78 395.28 302.07
  Q 401.70 300.71 409.00 300.75
  Q 423.98 300.85 438.95 300.90
  Z"
/>
<ellipse fill="#1341b4" cx="0.00" cy="0.00" transform="translate(303.03,317.45) rotate(-72.1)" rx="8.86" ry="8.67"/>
<path fill="#1341b4" d="
  M 829.64 335.15
  C 837.34 335.15 843.58 341.80 842.96 349.51
  Q 842.42 356.19 835.99 360.12
  A 2.37 2.37 0.0 0 0 834.85 362.19
  Q 834.96 368.29 834.92 416.34
  Q 834.88 464.38 834.76 470.48
  A 2.37 2.37 0.0 0 0 835.89 472.55
  Q 842.32 476.49 842.84 483.18
  C 843.45 490.89 837.20 497.52 829.50 497.52
  C 821.80 497.51 815.56 490.87 816.18 483.15
  Q 816.72 476.47 823.15 472.54
  A 2.37 2.37 0.0 0 0 824.28 470.47
  Q 824.18 464.37 824.22 416.33
  Q 824.26 368.28 824.38 362.18
  A 2.37 2.37 0.0 0 0 823.25 360.11
  Q 816.82 356.17 816.30 349.48
  C 815.69 341.77 821.94 335.14 829.64 335.15
  Z"
/>
<ellipse fill="#1341b4" cx="0.00" cy="0.00" transform="translate(303.06,345.93) rotate(-121.6)" rx="8.82" ry="8.66"/>
<path fill="#1341b4" d="
  M 630.02 357.17
  Q 618.02 356.79 606.66 357.43
  Q 603.47 357.60 599.35 357.39
  C 596.80 357.26 591.78 356.87 590.18 358.45
  Q 589.76 358.70 589.34 358.66
  A 0.34 0.34 0.0 0 1 589.11 358.11
  Q 591.25 355.47 592.82 354.29
  Q 598.13 350.31 606.05 344.22
  A 1.21 1.21 0.0 0 1 607.41 344.13
  L 619.87 351.37
  A 1.79 1.71 -19.7 0 0 620.23 351.53
  Q 625.39 353.23 630.02 357.17
  Z"
/>
<path fill="#1341b4" d="
  M 519.72 352.13
  L 519.57 357.72
  A 0.58 0.58 0.0 0 1 518.99 358.28
  L 409.57 358.28
  A 0.91 0.91 0.0 0 0 408.69 358.96
  Q 408.16 360.90 408.16 363.00
  Q 408.27 487.61 408.24 612.21
  C 404.74 611.02 403.79 607.13 403.76 603.81
  Q 403.63 592.73 402.72 578.51
  C 402.25 571.03 403.50 559.82 403.50 551.89
  C 403.49 537.71 403.20 516.17 404.68 499.05
  Q 405.46 490.06 404.68 481.13
  C 403.57 468.54 404.07 458.07 404.21 445.24
  C 404.27 440.12 403.42 434.05 403.36 429.13
  Q 402.95 395.55 404.93 361.04
  A 2.79 2.78 73.5 0 1 406.04 358.98
  Q 407.47 357.91 408.60 355.83
  A 3.32 3.28 8.2 0 1 410.84 354.18
  C 428.49 350.64 447.50 352.55 464.10 351.94
  Q 472.15 351.65 488.40 352.31
  Q 494.46 352.56 512.70 352.87
  Q 514.27 352.90 519.72 352.13
  Z"
/>
<path fill="#bacae6" d="
  M 590.18 358.45
  C 591.78 356.87 596.80 357.26 599.35 357.39
  Q 603.47 357.60 606.66 357.43
  Q 618.02 356.79 630.02 357.17
  Q 631.32 357.16 632.17 358.62
  A 0.38 0.38 0.0 0 1 631.81 359.19
  Q 628.42 358.87 621.77 359.51
  Q 611.56 360.50 596.29 359.66
  A 5.36 5.28 -34.1 0 1 595.04 359.43
  Q 592.68 358.69 590.18 358.45
  Z"
/>
<circle fill="#1341b4" cx="303.15" cy="374.00" r="8.78"/>
<path fill="#3860e0" d="
  M 663.95 381.82
  A 0.64 0.60 56.7 0 1 664.16 380.63
  Q 665.57 380.65 666.74 381.24
  Q 672.07 383.90 701.44 399.30
  Q 703.26 400.26 705.35 399.34
  Q 712.94 396.01 717.28 392.77
  Q 717.51 392.59 721.48 390.96
  A 0.43 0.43 0.0 0 1 722.05 391.52
  L 721.20 393.70
  A 1.56 1.55 57.2 0 0 721.09 394.22
  L 720.86 403.41
  A 1.66 1.65 4.9 0 0 722.28 405.09
  Q 727.48 405.81 730.46 405.13
  A 1.49 1.48 -6.5 0 1 732.28 406.57
  L 732.28 411.40
  A 1.82 1.82 0.0 0 1 730.48 413.22
  Q 720.37 413.34 704.75 412.93
  Q 701.61 412.85 698.66 413.65
  A 3.94 3.71 -67.2 0 0 697.62 414.11
  Q 692.74 417.17 690.48 419.74
  Q 682.10 429.24 673.85 437.36
  A 4.26 4.21 22.5 0 1 670.88 438.57
  L 664.42 438.57
  A 0.82 0.82 0.0 0 1 663.61 437.64
  Q 664.11 434.09 663.99 431.00
  Q 663.04 405.94 664.35 382.33
  A 0.44 0.43 22.2 0 0 664.20 381.98
  Q 664.10 381.89 663.95 381.82
  Z"
/>
<path fill="#3860e0" d="
  M 721.32 460.53
  Q 720.02 459.04 718.59 459.69
  A 1.33 1.31 -3.3 0 0 717.89 460.47
  C 715.67 466.93 716.48 473.08 718.09 479.97
  A 1.02 1.02 0.0 0 1 717.24 481.22
  Q 712.05 481.96 704.85 481.39
  C 693.46 480.49 681.79 480.81 670.38 481.11
  A 1.09 1.08 -86.8 0 1 669.28 479.88
  Q 669.94 474.88 668.82 469.85
  Q 675.13 469.65 681.73 469.58
  C 686.25 469.53 689.90 466.56 693.27 463.01
  Q 702.85 452.89 707.95 447.43
  Q 710.96 444.20 714.74 444.39
  C 726.22 444.97 737.54 444.22 749.54 444.19
  Q 758.45 444.16 762.69 435.95
  Q 763.91 433.58 763.78 427.24
  Q 763.65 421.27 763.66 408.50
  Q 763.67 406.89 764.01 405.38
  A 0.74 0.72 6.4 0 1 764.73 404.82
  L 773.98 404.82
  A 1.23 1.22 -0.0 0 1 775.21 406.04
  L 775.21 457.30
  A 0.72 0.71 -0.0 0 1 774.49 458.01
  L 722.09 458.01
  A 0.58 0.57 -79.8 0 0 721.55 458.39
  Q 721.26 459.18 721.32 460.53
  Z"
/>
<path fill="#3860e0" d="
  M 465.32 556.90
  Q 464.64 556.20 464.71 555.49
  C 465.37 548.89 465.72 542.24 465.67 535.84
  Q 465.14 463.47 465.08 422.51
  A 3.35 2.49 -58.5 0 0 465.03 421.95
  Q 464.38 418.54 464.44 415.23
  A 0.88 0.88 0.0 0 1 465.35 414.36
  Q 472.43 414.60 479.74 414.75
  C 487.33 414.92 499.90 413.70 507.46 413.97
  C 513.41 414.19 520.19 414.74 527.45 414.20
  Q 535.00 413.64 536.55 413.73
  Q 547.69 414.40 560.31 414.30
  C 571.51 414.22 581.74 415.28 592.93 414.57
  Q 599.52 414.15 605.86 414.16
  A 0.82 0.82 0.0 0 1 606.68 414.98
  Q 606.69 419.95 606.46 429.43
  C 606.25 438.27 607.01 450.69 606.42 461.05
  Q 605.93 469.51 606.39 473.88
  Q 607.64 485.90 606.81 493.51
  Q 605.92 501.65 606.29 507.52
  Q 606.66 513.58 606.56 520.48
  Q 606.44 528.67 606.84 545.99
  Q 606.91 549.25 607.12 550.50
  C 607.53 553.07 608.44 556.97 605.25 557.27
  Q 600.04 557.78 597.42 557.48
  Q 593.16 557.00 589.58 556.96
  Q 579.75 556.83 572.00 556.79
  Q 561.72 556.73 561.25 556.75
  Q 554.94 557.06 545.74 556.71
  Q 535.57 556.33 530.25 556.63
  Q 526.78 556.82 506.85 557.08
  C 505.54 557.10 503.83 556.78 502.50 556.80
  Q 486.36 556.95 476.86 556.56
  A 5.12 4.81 37.8 0 0 475.49 556.69
  Q 470.58 557.82 465.64 557.07
  A 0.56 0.55 -16.7 0 1 465.32 556.90
  Z"
/>
<path fill="#1341b4" d="
  M 350.49 458.94
  Q 346.94 457.78 340.50 457.87
  Q 319.71 458.18 304.51 458.10
  Q 301.14 458.08 297.52 457.78
  A 1.25 1.24 4.5 0 1 296.39 456.46
  L 296.75 450.77
  Q 299.54 452.12 301.05 452.20
  Q 316.47 453.02 335.93 454.03
  Q 340.83 454.28 345.70 454.88
  Q 348.57 455.23 349.88 456.52
  Q 351.06 457.68 350.49 458.94
  Z"
/>
<path fill="#1341b4" d="
  M 669.20 501.62
  L 669.56 501.94
  A 0.66 0.66 0.0 0 1 669.67 502.82
  Q 668.95 503.89 669.00 504.55
  C 669.54 511.83 668.80 520.02 668.89 526.46
  Q 669.03 534.96 668.88 553.25
  Q 668.82 561.82 668.44 566.91
  Q 668.12 571.17 668.41 580.55
  Q 668.88 595.60 665.90 611.72
  A 2.64 2.44 -26.7 0 1 665.60 612.52
  Q 663.01 616.99 658.10 617.83
  Q 651.08 619.02 640.44 619.09
  Q 572.36 619.50 471.05 619.44
  C 453.47 619.43 436.70 619.69 418.97 618.97
  Q 411.36 618.65 406.18 613.44
  A 0.05 0.05 0.0 0 1 406.25 613.36
  C 409.23 615.18 412.59 616.03 416.11 615.88
  C 414.08 615.88 411.79 614.85 410.24 613.61
  L 662.03 613.64
  A 1.76 1.75 -89.8 0 0 663.79 611.88
  L 663.79 501.89
  A 0.33 0.33 0.0 0 1 664.13 501.56
  L 669.20 501.62
  Z"
/>
<path fill="#1341b4" d="
  M 645.04 535.46
  A 1.82 1.82 0.0 0 0 642.83 536.07
  Q 641.49 537.95 641.18 540.52
  Q 640.26 548.28 640.07 551.54
  Q 638.59 576.93 637.11 585.09
  C 636.40 589.00 635.16 593.97 632.19 596.66
  C 626.45 601.89 619.28 600.89 613.54 596.09
  C 609.77 592.94 612.38 586.55 617.13 586.92
  C 618.76 587.04 619.90 588.31 621.19 589.09
  C 623.47 590.47 625.73 589.32 626.32 586.80
  Q 627.61 581.22 627.92 575.78
  Q 629.44 549.05 631.59 536.64
  C 633.59 525.07 647.75 521.12 654.88 530.43
  C 657.85 534.31 654.45 538.85 650.01 538.37
  C 648.23 538.18 646.40 536.07 645.04 535.46
  Z"
/>
<path fill="#1341b4" d="
  M 720.38 621.09
  Q 718.38 634.52 710.65 645.40
  Q 708.61 648.27 702.56 654.56
  Q 694.71 662.72 685.05 666.28
  Q 677.97 668.89 668.48 670.14
  Q 666.96 668.79 670.03 667.65
  C 673.68 666.29 679.49 665.33 683.61 663.45
  Q 687.43 661.69 693.83 658.28
  C 700.33 654.82 704.85 649.87 708.88 644.16
  Q 710.30 642.15 713.12 635.22
  Q 716.09 627.91 720.38 621.09
  Z"
/>
<path fill="#1341b4" d="
  M 572.31 725.15
  L 565.01 725.15
  A 1.37 1.36 0.6 0 1 563.64 723.76
  L 563.89 713.79
  Q 563.84 710.33 564.07 706.92
  C 564.72 696.97 564.58 687.01 564.37 676.52
  Q 564.31 674.06 565.61 673.07
  A 0.63 0.63 0.0 0 0 565.79 672.28
  Q 565.56 671.85 565.56 671.84
  A 0.23 0.23 0.0 0 1 565.99 671.74
  Q 567.99 675.01 567.71 681.06
  Q 566.89 699.11 568.97 717.05
  Q 569.49 721.55 572.31 725.15
  Z"
/>
<path fill="#1341b4" d="
  M 508.24 671.24
  L 508.12 724.53
  A 0.59 0.59 0.0 0 1 507.53 725.12
  L 502.55 725.13
  Q 503.43 719.82 503.44 718.01
  Q 503.52 699.21 503.81 680.42
  Q 503.87 676.40 505.00 674.22
  Q 505.69 672.88 508.24 671.24
  Z"
/>
</svg>
